<svg xmlns="http://www.w3.org/2000/svg" version="1.1" xmlns:xlink="http://www.w3.org/1999/xlink" xmlns:svgjs="http://svgjs.com/svgjs" width="1440" height="150" preserveAspectRatio="none" viewBox="0 0 1440 150"><g mask="url(&quot;#SvgjsMask1085&quot;)" fill="none"><path d="M 0,46 C 32,39.2 96,9.6 160,12 C 224,14.4 256,56.2 320,58 C 384,59.8 416,18 480,21 C 544,24 576,70.2 640,73 C 704,75.8 736,37 800,35 C 864,33 896,68.8 960,63 C 1024,57.2 1056,8.8 1120,6 C 1184,3.2 1216,49.2 1280,49 C 1344,48.8 1408,13.8 1440,5L1440 150L0 150z" fill="rgba(0, 180, 255, 0.7)"></path><path d="M 0,144 C 41.2,130 123.6,74.4 206,74 C 288.4,73.6 329.6,141.2 412,142 C 494.4,142.8 535.6,79 618,78 C 700.4,77 741.6,136.2 824,137 C 906.4,137.8 947.6,86.8 1030,82 C 1112.4,77.2 1154,108 1236,113 C 1318,118 1399.2,108.2 1440,107L1440 150L0 150z" fill="rgba(68, 145, 214, 1)"></path></g><defs><mask id="SvgjsMask1085"><rect width="1440" height="150" fill="#ffffff"></rect></mask></defs></svg>